<svg width="1440" height="1024" viewBox="0 0 1440 1024" fill="none" xmlns="http://www.w3.org/2000/svg">
<g clip-path="url(#clip0_1_353)">
<rect width="1440" height="1024" fill="url(#paint0_linear_1_353)"/>
<g clip-path="url(#clip1_1_353)">
<path d="M1435 402.947H-11V1042.05H1435V402.947Z" fill="#35477E"/>
<path d="M1435 910.739C1354.8 916.804 1072.31 921.343 929.325 923.284C777.736 925.342 585.077 911.382 405.794 904.42C335.129 901.676 242.808 900.305 177.461 901.676C109.338 903.107 58.5339 905.915 -11 910.739V1042.05H1435V910.739Z" fill="#437880"/>
<path d="M602.783 1042.05C679.717 1028.6 789.567 1015.92 869.488 1007.07C1030.58 989.235 1147.02 981.175 1279.23 974.316C1320.37 972.545 1399.19 970.475 1435 970.174V1042.05H602.783V1042.05Z" fill="#5E9391"/>
<path d="M474.38 1042.05C391.525 1017.88 329.251 1000.38 232.75 985.633C190.752 979.214 145.97 973.849 98.9842 971.86C64.5127 970.401 28.145 969.844 -11.0017 970.173V1042.05H474.38Z" fill="#5E9391"/>
<path d="M711.629 968.107V945.707H704.65V968.107C706.627 968.385 709.846 968.362 711.629 968.107Z" fill="#284E5C"/>
<path d="M705.362 869.842C714.338 869.584 717.615 877.687 716.617 884.375C725.878 885.789 731.292 896.851 726.589 904.439C734.424 906.883 736.704 919.873 731.575 924.632C737.987 929.905 737.155 938.284 732.573 942.767C727.444 947.783 720.462 949.969 713.34 947.268C707.213 950.87 695.958 951.254 689.405 947.654C679.006 948.555 671.785 936.664 678.863 929.004C672.879 921.287 677.865 911.77 684.704 909.712C678.72 900.066 686.841 888.876 694.393 887.977C690.259 880.002 695.795 870.116 705.362 869.842Z" fill="#3D6E67"/>
<path d="M429.964 923.157V900.756H422.985V923.157C424.964 923.435 428.181 923.413 429.964 923.157Z" fill="#284E5C"/>
<path d="M423.698 824.893C432.674 824.636 435.951 832.739 434.953 839.426C444.215 840.84 449.628 851.902 444.926 859.49C452.761 861.934 455.04 874.924 449.912 879.683C456.323 884.956 455.492 893.336 450.91 897.818C445.781 902.834 438.799 905.02 431.676 902.319C425.55 905.921 414.295 906.306 407.742 902.705C397.342 903.606 390.122 891.715 397.2 884.056C391.216 876.338 396.202 866.821 403.041 864.764C397.057 855.118 405.178 843.928 412.73 843.028C408.596 835.054 414.131 825.166 423.698 824.893Z" fill="#1C4965"/>
<path d="M1428.54 918.012V895.612H1421.56V918.012C1423.54 918.29 1426.76 918.268 1428.54 918.012Z" fill="#284E5C"/>
<path d="M1433.53 834.282C1434.53 827.594 1431.25 819.491 1422.27 819.748C1412.71 820.023 1407.17 829.909 1411.3 837.884C1403.75 838.784 1395.63 849.973 1401.61 859.619C1394.77 861.677 1389.79 871.194 1395.77 878.911C1388.69 886.571 1395.92 898.46 1406.32 897.561C1412.87 901.163 1424.12 900.777 1430.25 897.175C1431.85 897.779 1433.43 898.127 1435 898.265V834.607C1434.52 834.475 1434.03 834.359 1433.53 834.282Z" fill="#1C4965"/>
<path d="M210.119 923.433V901.032H203.141V923.433C205.118 923.711 208.336 923.687 210.119 923.433Z" fill="#284E5C"/>
<path d="M203.852 825.168C212.828 824.91 216.105 833.013 215.107 839.701C224.368 841.115 229.782 852.176 225.079 859.765C232.915 862.208 235.194 875.199 230.065 879.957C236.477 885.231 235.646 893.61 231.063 898.093C225.935 903.109 218.953 905.295 211.83 902.594C205.703 906.196 194.448 906.58 187.894 902.98C177.494 903.881 170.273 891.99 177.352 884.33C171.368 876.613 176.354 867.096 183.193 865.038C177.209 855.392 185.33 844.202 192.882 843.303C188.751 835.328 194.285 825.442 203.852 825.168Z" fill="#1C4965"/>
<path d="M1207.73 934.149V911.097H1200.55V934.149C1202.58 934.434 1205.89 934.411 1207.73 934.149Z" fill="#284E5C"/>
<path d="M1203.54 833.336C1210.53 833.336 1217.27 839.465 1214.96 846.709C1222.62 849.449 1225.6 858.968 1220.97 863.426C1229.92 867.465 1232.39 880.328 1224.78 884.784C1233.78 889.892 1235.07 899.271 1230.75 905.586C1226.43 911.902 1218.61 912.831 1211 909.858C1202.15 913.759 1188.14 915.735 1179.93 909.533C1170.52 902.428 1173.75 891.98 1181.37 887.941C1174.84 882.231 1177 870.947 1185.07 867.696C1179.47 859.802 1184.87 851.722 1191.86 850.237C1187.8 841.137 1194.69 833.15 1203.54 833.336Z" fill="#3D6E67"/>
<path d="M102.157 915.629V892.577H94.9755V915.629C97.0108 915.913 100.322 915.891 102.157 915.629Z" fill="#284E5C"/>
<path d="M97.9674 814.815C104.963 814.815 111.701 820.944 109.386 828.188C117.05 830.928 120.033 840.447 115.404 844.904C124.354 848.944 126.823 861.807 119.21 866.263C128.212 871.371 129.497 880.75 125.177 887.065C120.856 893.38 113.039 894.309 105.427 891.337C96.5796 895.238 82.5763 897.213 74.3595 891.011C64.9473 883.907 68.1866 873.459 75.8006 869.42C69.2687 863.709 71.4294 852.426 79.5036 849.175C73.8975 841.281 79.2975 833.201 86.2932 831.715C82.2277 822.615 89.1203 814.63 97.9674 814.815Z" fill="#3D6E67"/>
<path d="M977.24 1005.57V982.523H970.059V1005.57C972.094 1005.86 975.406 1005.84 977.24 1005.57Z" fill="#40625D"/>
<path d="M973.049 904.761C980.045 904.761 986.783 910.891 984.467 918.135C992.131 920.875 995.115 930.393 990.486 934.851C999.436 938.89 1001.9 951.754 994.292 956.21C1003.29 961.317 1004.58 970.697 1000.26 977.012C995.939 983.327 988.121 984.256 980.508 981.284C971.661 985.185 957.658 987.16 949.441 980.958C940.029 973.854 943.268 963.406 950.882 959.367C944.35 953.656 946.511 942.373 954.585 939.121C948.979 931.228 954.379 923.148 961.375 921.662C957.311 912.562 964.202 904.575 973.049 904.761Z" fill="#3D6E67"/>
<path d="M881.499 1016.89V993.842H874.318V1016.89C876.354 1017.18 879.665 1017.16 881.499 1016.89Z" fill="#40625D"/>
<path d="M877.309 916.079C884.304 916.079 891.042 922.208 888.727 929.452C896.391 932.192 899.374 941.711 894.745 946.169C903.696 950.208 906.164 963.071 898.551 967.527C907.553 972.635 908.838 982.014 904.518 988.329C900.199 994.645 892.38 995.574 884.768 992.601C875.921 996.502 861.918 998.478 853.701 992.276C844.288 985.171 847.528 974.723 855.14 970.684C848.608 964.972 850.769 953.69 858.843 950.439C853.237 942.545 858.637 934.465 865.633 932.98C861.571 923.881 868.463 915.894 877.309 916.079Z" fill="#005268"/>
<path d="M295.661 1009.69V986.639H288.48V1009.69C290.515 1009.97 293.826 1009.95 295.661 1009.69Z" fill="#40625D"/>
<path d="M291.472 908.877C298.467 908.877 305.205 915.006 302.89 922.25C310.554 924.99 313.537 934.509 308.908 938.966C317.859 943.006 320.327 955.869 312.714 960.325C321.716 965.433 323.001 974.812 318.681 981.127C314.362 987.443 306.543 988.371 298.931 985.399C290.084 989.3 276.08 991.275 267.864 985.073C258.451 977.969 261.691 967.521 269.305 963.482C262.773 957.771 264.933 946.488 273.008 943.237C267.402 935.343 272.802 927.263 279.797 925.778C275.732 916.677 282.624 908.692 291.472 908.877Z" fill="#005268"/>
<path d="M477.884 917.586H471.266V938.825H477.884V917.586Z" fill="#284E5C"/>
<path d="M471.553 843.025C478.549 843.025 485.287 849.154 482.971 856.399C490.635 859.138 493.619 868.657 488.99 873.115C497.94 877.154 500.408 890.017 492.796 894.474C501.798 899.581 503.082 908.96 498.763 915.276C494.441 921.591 486.625 922.52 479.012 919.547C470.165 923.449 456.162 925.424 447.945 919.222C438.533 912.117 441.772 901.67 449.386 897.631C442.854 891.92 445.015 880.637 453.089 877.385C447.483 869.491 452.883 861.411 459.879 859.926C455.815 850.826 462.706 842.841 471.553 843.025Z" fill="#3D6E67"/>
<path d="M819.688 909.954H813.072V931.194H819.688V909.954Z" fill="#284E5C"/>
<path d="M813.359 835.393C820.354 835.393 827.092 841.523 824.777 848.767C832.441 851.507 835.424 861.025 830.795 865.483C839.745 869.522 842.214 882.386 834.601 886.842C843.603 891.949 844.888 901.329 840.568 907.644C836.247 913.959 828.43 914.888 820.818 911.916C811.971 915.817 797.967 917.792 789.751 911.59C780.338 904.485 783.578 894.038 791.192 889.999C784.66 884.288 786.82 873.005 794.895 869.753C789.289 861.86 794.689 853.78 801.684 852.294C797.619 843.194 804.511 835.209 813.359 835.393Z" fill="#3D6E67"/>
<path d="M3.48594 892.673C8.0684 888.191 8.8997 879.812 2.48803 874.538C7.61668 869.78 5.33747 856.789 -2.49806 854.346C1.947 847.17 -2.65607 836.902 -11 834.609V898.266C-5.58967 898.741 -0.49366 896.565 3.48594 892.673Z" fill="#1C4965"/>
<path d="M1398.54 944.28C1396.16 948.294 1394.17 952.495 1392.6 956.822C1392.21 957.908 1394.1 958.373 1394.49 957.294C1396.01 953.107 1397.93 949.057 1400.23 945.175C1400.83 944.17 1399.14 943.274 1398.54 944.28Z" fill="#CBCBCB"/>
<path d="M1391.52 945.744C1388.16 950.102 1385.69 954.982 1384.21 960.119C1383.9 961.223 1385.79 961.694 1386.1 960.59C1387.54 955.59 1389.94 950.882 1393.21 946.639C1393.93 945.7 1392.23 944.814 1391.52 945.744Z" fill="#CBCBCB"/>
<path d="M1379.48 942.958C1378.22 945.663 1377.36 948.53 1376.61 951.383C1375.82 954.413 1375.11 957.547 1375.04 960.668C1375.01 961.807 1376.97 961.807 1377 960.668C1377.07 957.699 1377.75 954.734 1378.5 951.853C1379.21 949.16 1379.98 946.406 1381.18 943.851C1381.66 942.813 1379.97 941.911 1379.48 942.958Z" fill="#CBCBCB"/>
<path d="M954.499 1011.68C952.119 1015.7 950.132 1019.9 948.563 1024.23C948.17 1025.31 950.063 1025.78 950.455 1024.7C951.973 1020.51 953.891 1016.46 956.193 1012.58C956.789 1011.57 955.097 1010.68 954.499 1011.68Z" fill="#CBCBCB"/>
<path d="M947.476 1013.15C944.124 1017.51 941.649 1022.39 940.173 1027.52C939.856 1028.63 941.748 1029.1 942.064 1027.99C943.502 1022.99 945.905 1018.29 949.17 1014.04C949.893 1013.1 948.193 1012.22 947.476 1013.15Z" fill="#CBCBCB"/>
<path d="M935.445 1010.36C934.179 1013.07 933.32 1015.93 932.575 1018.79C931.783 1021.82 931.07 1024.95 930.998 1028.07C930.972 1029.21 932.934 1029.21 932.959 1028.07C933.028 1025.1 933.713 1022.14 934.466 1019.26C935.168 1016.56 935.943 1013.81 937.138 1011.25C937.624 1010.22 935.934 1009.31 935.445 1010.36Z" fill="#CBCBCB"/>
<path d="M437.317 969.137C434.936 973.151 432.949 977.352 431.381 981.679C430.988 982.765 432.88 983.23 433.272 982.151C434.79 977.964 436.709 973.914 439.01 970.032C439.606 969.025 437.913 968.131 437.317 969.137Z" fill="#CBCBCB"/>
<path d="M430.294 970.601C426.941 974.959 424.466 979.839 422.991 984.976C422.673 986.08 424.566 986.551 424.882 985.447C426.319 980.446 428.722 975.739 431.987 971.495C432.709 970.556 431.01 969.669 430.294 970.601Z" fill="#CBCBCB"/>
<path d="M418.262 967.814C416.996 970.52 416.138 973.387 415.392 976.24C414.6 979.27 413.888 982.403 413.815 985.525C413.79 986.664 415.751 986.664 415.777 985.525C415.846 982.555 416.531 979.591 417.283 976.71C417.986 974.016 418.76 971.263 419.956 968.707C420.44 967.67 418.752 966.766 418.262 967.814Z" fill="#CBCBCB"/>
<path d="M334.607 1014.66C332.226 1018.68 330.239 1022.88 328.671 1027.2C328.277 1028.29 330.17 1028.76 330.562 1027.68C332.08 1023.49 333.999 1019.44 336.3 1015.56C336.896 1014.55 335.203 1013.66 334.607 1014.66Z" fill="#CBCBCB"/>
<path d="M327.583 1016.13C324.231 1020.48 321.756 1025.36 320.28 1030.5C319.963 1031.61 321.855 1032.08 322.171 1030.97C323.609 1025.97 326.012 1021.26 329.277 1017.02C329.998 1016.08 328.3 1015.2 327.583 1016.13Z" fill="#CBCBCB"/>
<path d="M315.552 1013.34C314.286 1016.05 313.427 1018.91 312.682 1021.77C311.89 1024.8 311.177 1027.93 311.105 1031.05C311.079 1032.19 313.041 1032.19 313.067 1031.05C313.135 1028.08 313.821 1025.12 314.573 1022.24C315.275 1019.54 316.05 1016.79 317.245 1014.23C317.73 1013.2 316.041 1012.29 315.552 1013.34Z" fill="#CBCBCB"/>
<path d="M249.125 953.955C246.745 957.97 244.757 962.17 243.189 966.498C242.796 967.583 244.689 968.048 245.08 966.969C246.599 962.783 248.517 958.733 250.819 954.85C251.415 953.845 249.721 952.949 249.125 953.955Z" fill="#CBCBCB"/>
<path d="M242.1 955.419C238.748 959.778 236.273 964.657 234.797 969.794C234.479 970.898 236.372 971.37 236.688 970.266C238.126 965.265 240.529 960.558 243.794 956.314C244.517 955.376 242.816 954.489 242.1 955.419Z" fill="#CBCBCB"/>
<path d="M230.069 952.633C228.803 955.339 227.944 958.206 227.199 961.059C226.407 964.088 225.694 967.222 225.622 970.343C225.596 971.483 227.558 971.483 227.583 970.343C227.652 967.374 228.337 964.409 229.09 961.528C229.792 958.835 230.567 956.081 231.762 953.526C232.248 952.489 230.56 951.586 230.069 952.633Z" fill="#CBCBCB"/>
<path d="M127.369 1005.75C124.988 1009.76 123.001 1013.96 121.433 1018.29C121.039 1019.38 122.932 1019.84 123.324 1018.76C124.842 1014.58 126.761 1010.53 129.062 1006.64C129.658 1005.64 127.966 1004.75 127.369 1005.75Z" fill="#CBCBCB"/>
<path d="M120.345 1007.21C116.993 1011.57 114.518 1016.45 113.042 1021.59C112.725 1022.69 114.617 1023.16 114.933 1022.06C116.371 1017.06 118.774 1012.35 122.039 1008.11C122.762 1007.17 121.062 1006.28 120.345 1007.21Z" fill="#CBCBCB"/>
<path d="M108.314 1004.43C107.048 1007.13 106.189 1010 105.444 1012.85C104.652 1015.88 103.939 1019.02 103.867 1022.14C103.841 1023.28 105.803 1023.28 105.829 1022.14C105.897 1019.17 106.583 1016.21 107.335 1013.32C108.037 1010.63 108.812 1007.88 110.007 1005.32C110.494 1004.28 108.803 1003.38 108.314 1004.43Z" fill="#CBCBCB"/>
<path d="M1337.26 1002.17C1334.88 1006.18 1332.89 1010.38 1331.32 1014.71C1330.93 1015.8 1332.82 1016.26 1333.21 1015.18C1334.73 1011 1336.65 1006.95 1338.95 1003.06C1339.55 1002.06 1337.86 1001.16 1337.26 1002.17Z" fill="#CBCBCB"/>
<path d="M1330.24 1003.63C1326.88 1007.99 1324.41 1012.87 1322.93 1018.01C1322.61 1019.11 1324.51 1019.58 1324.82 1018.48C1326.26 1013.48 1328.66 1008.77 1331.93 1004.53C1332.65 1003.59 1330.95 1002.7 1330.24 1003.63Z" fill="#CBCBCB"/>
<path d="M1318.2 1000.85C1316.94 1003.55 1316.08 1006.42 1315.33 1009.27C1314.54 1012.3 1313.83 1015.43 1313.76 1018.56C1313.73 1019.7 1315.69 1019.7 1315.72 1018.56C1315.79 1015.59 1316.47 1012.62 1317.22 1009.74C1317.93 1007.05 1318.7 1004.29 1319.9 1001.74C1320.38 1000.7 1318.69 999.799 1318.2 1000.85Z" fill="#CBCBCB"/>
<path d="M480.565 1002.89C478.184 1006.91 476.197 1011.11 474.629 1015.44C474.236 1016.52 476.129 1016.99 476.52 1015.91C478.038 1011.72 479.957 1007.67 482.259 1003.79C482.855 1002.78 481.163 1001.89 480.565 1002.89Z" fill="#CBCBCB"/>
<path d="M503.786 1004.36C500.434 1008.72 497.959 1013.6 496.483 1018.73C496.166 1019.84 498.058 1020.31 498.374 1019.2C499.812 1014.2 502.215 1009.5 505.48 1005.25C506.203 1004.31 504.503 1003.43 503.786 1004.36Z" fill="#CBCBCB"/>
<path d="M493.029 1000.43C491.764 1003.13 490.905 1006 490.159 1008.85C489.368 1011.88 488.655 1015.02 488.583 1018.14C488.557 1019.28 490.518 1019.28 490.544 1018.14C490.613 1015.17 491.298 1012.2 492.05 1009.32C492.753 1006.63 493.527 1003.88 494.723 1001.32C495.209 1000.28 493.519 999.379 493.029 1000.43Z" fill="#CBCBCB"/>
<path d="M197.079 1010.1C194.699 1014.11 192.712 1018.31 191.144 1022.64C190.75 1023.72 192.643 1024.19 193.035 1023.11C194.553 1018.92 196.471 1014.87 198.773 1010.99C199.369 1009.98 197.675 1009.09 197.079 1010.1Z" fill="#CBCBCB"/>
<path d="M220.301 1011.56C216.948 1015.92 214.473 1020.8 212.998 1025.93C212.68 1027.04 214.573 1027.51 214.889 1026.41C216.326 1021.41 218.729 1016.7 221.994 1012.45C222.718 1011.51 221.017 1010.63 220.301 1011.56Z" fill="#CBCBCB"/>
<path d="M209.544 1007.63C208.278 1010.33 207.419 1013.2 206.674 1016.05C205.882 1019.08 205.169 1022.22 205.097 1025.34C205.071 1026.48 207.033 1026.48 207.059 1025.34C207.127 1022.37 207.813 1019.41 208.565 1016.53C209.267 1013.83 210.042 1011.08 211.237 1008.52C211.723 1007.48 210.033 1006.58 209.544 1007.63Z" fill="#CBCBCB"/>
<path d="M1188.7 1012.41C1186.32 1016.42 1184.34 1020.62 1182.77 1024.95C1182.38 1026.04 1184.27 1026.5 1184.66 1025.42C1186.18 1021.24 1188.1 1017.19 1190.4 1013.3C1190.99 1012.3 1189.3 1011.4 1188.7 1012.41Z" fill="#CBCBCB"/>
<path d="M1211.93 1013.87C1208.57 1018.23 1206.1 1023.11 1204.62 1028.25C1204.31 1029.35 1206.2 1029.82 1206.51 1028.72C1207.95 1023.72 1210.35 1019.01 1213.62 1014.77C1214.34 1013.83 1212.64 1012.94 1211.93 1013.87Z" fill="#CBCBCB"/>
<path d="M1201.17 1009.94C1199.9 1012.65 1199.04 1015.52 1198.3 1018.37C1197.51 1021.4 1196.79 1024.53 1196.72 1027.65C1196.7 1028.79 1198.66 1028.79 1198.68 1027.65C1198.75 1024.68 1199.44 1021.72 1200.19 1018.84C1200.89 1016.14 1201.67 1013.39 1202.86 1010.84C1203.35 1009.8 1201.66 1008.9 1201.17 1009.94Z" fill="#CBCBCB"/>
<path d="M1273.47 948.992C1271.09 953.007 1269.1 957.207 1267.54 961.535C1267.14 962.62 1269.04 963.085 1269.43 962.006C1270.95 957.82 1272.86 953.769 1275.17 949.887C1275.76 948.881 1274.07 947.986 1273.47 948.992Z" fill="#CBCBCB"/>
<path d="M1296.69 950.456C1293.34 954.814 1290.87 959.694 1289.39 964.831C1289.07 965.935 1290.97 966.406 1291.28 965.302C1292.72 960.302 1295.12 955.594 1298.39 951.351C1299.11 950.411 1297.41 949.524 1296.69 950.456Z" fill="#CBCBCB"/>
<path d="M1285.94 946.525C1284.67 949.231 1283.81 952.098 1283.07 954.951C1282.27 957.981 1281.56 961.114 1281.49 964.236C1281.46 965.375 1283.43 965.375 1283.45 964.236C1283.52 961.266 1284.2 958.302 1284.96 955.421C1285.66 952.727 1286.43 949.974 1287.63 947.418C1288.12 946.381 1286.43 945.477 1285.94 946.525Z" fill="#CBCBCB"/>
<path d="M54.6694 939.259C52.2889 943.274 50.3017 947.474 48.7335 951.802C48.3402 952.887 50.233 953.352 50.6246 952.273C52.1429 948.087 54.0614 944.037 56.3629 940.154C56.9589 939.148 55.2671 938.253 54.6694 939.259Z" fill="#CBCBCB"/>
<path d="M47.6463 940.723C44.2936 945.082 41.8186 949.961 40.3432 955.098C40.0254 956.202 41.9182 956.674 42.2342 955.57C43.6718 950.569 46.0747 945.862 49.3398 941.618C50.0629 940.678 48.3625 939.791 47.6463 940.723Z" fill="#CBCBCB"/>
<path d="M62.9052 942.958C61.6393 945.663 60.7805 948.53 60.0351 951.383C59.2433 954.413 58.5305 957.547 58.4584 960.668C58.4326 961.807 60.3941 961.807 60.4198 960.668C60.4885 957.699 61.1739 954.734 61.9261 951.853C62.6286 949.16 63.4032 946.406 64.5987 943.851C65.083 942.813 63.3947 941.911 62.9052 942.958Z" fill="#CBCBCB"/>
<path d="M630.338 994.558C627.958 998.572 625.97 1002.77 624.402 1007.1C624.009 1008.19 625.902 1008.65 626.293 1007.57C627.812 1003.39 629.73 999.335 632.032 995.453C632.628 994.446 630.936 993.552 630.338 994.558Z" fill="#CBCBCB"/>
<path d="M623.315 996.022C619.963 1000.38 617.488 1005.26 616.012 1010.4C615.694 1011.5 617.587 1011.97 617.903 1010.87C619.341 1005.87 621.744 1001.16 625.009 996.916C625.732 995.977 624.031 995.09 623.315 996.022Z" fill="#CBCBCB"/>
<path d="M638.574 998.256C637.308 1000.96 636.449 1003.83 635.704 1006.68C634.912 1009.71 634.199 1012.85 634.127 1015.97C634.101 1017.11 636.063 1017.11 636.089 1015.97C636.157 1013 636.843 1010.03 637.595 1007.15C638.297 1004.46 639.072 1001.7 640.268 999.149C640.752 998.113 639.064 997.209 638.574 998.256Z" fill="#CBCBCB"/>
<path d="M810.374 965.22C807.993 969.235 806.006 973.435 804.438 977.762C804.044 978.848 805.937 979.313 806.329 978.234C807.847 974.047 809.766 969.997 812.067 966.115C812.663 965.11 810.97 964.215 810.374 965.22Z" fill="#CBCBCB"/>
<path d="M803.349 966.684C799.996 971.042 797.521 975.922 796.046 981.059C795.728 982.163 797.621 982.634 797.937 981.53C799.374 976.53 801.777 971.822 805.042 967.579C805.765 966.64 804.065 965.754 803.349 966.684Z" fill="#CBCBCB"/>
<path d="M818.607 968.92C817.342 971.625 816.483 974.492 815.737 977.345C814.946 980.375 814.233 983.509 814.161 986.63C814.135 987.77 816.096 987.77 816.122 986.63C816.191 983.661 816.876 980.696 817.628 977.815C818.331 975.122 819.106 972.368 820.301 969.813C820.787 968.776 819.097 967.873 818.607 968.92Z" fill="#CBCBCB"/>
<path d="M1104.89 956.435C1102.51 960.449 1100.52 964.65 1098.95 968.977C1098.56 970.062 1100.45 970.528 1100.84 969.448C1102.36 965.262 1104.28 961.212 1106.58 957.329C1107.18 956.325 1105.48 955.428 1104.89 956.435Z" fill="#CBCBCB"/>
<path d="M1097.86 957.899C1094.51 962.257 1092.04 967.137 1090.56 972.274C1090.24 973.378 1092.13 973.849 1092.45 972.745C1093.89 967.744 1096.29 963.037 1099.56 958.793C1100.28 957.855 1098.58 956.968 1097.86 957.899Z" fill="#CBCBCB"/>
<path d="M1113.12 960.134C1111.86 962.84 1111 965.707 1110.25 968.56C1109.46 971.59 1108.75 974.723 1108.68 977.845C1108.65 978.984 1110.61 978.984 1110.64 977.845C1110.71 974.875 1111.39 971.911 1112.14 969.03C1112.85 966.337 1113.62 963.583 1114.82 961.028C1115.3 959.99 1113.61 959.086 1113.12 960.134Z" fill="#CBCBCB"/>
<path d="M1157.61 997.588C1155.23 1001.6 1153.25 1005.8 1151.68 1010.13C1151.28 1011.22 1153.18 1011.68 1153.57 1010.6C1155.09 1006.41 1157.01 1002.36 1159.31 998.482C1159.9 997.478 1158.21 996.583 1157.61 997.588Z" fill="#CBCBCB"/>
<path d="M1150.59 999.051C1147.24 1003.41 1144.76 1008.29 1143.29 1013.43C1142.97 1014.53 1144.86 1015 1145.18 1013.9C1146.61 1008.9 1149.02 1004.19 1152.28 999.946C1153.01 999.008 1151.3 998.121 1150.59 999.051Z" fill="#CBCBCB"/>
<path d="M1165.85 1001.29C1164.58 1003.99 1163.72 1006.86 1162.98 1009.71C1162.19 1012.74 1161.47 1015.88 1161.4 1019C1161.37 1020.14 1163.34 1020.14 1163.36 1019C1163.43 1016.03 1164.12 1013.06 1164.87 1010.18C1165.57 1007.49 1166.35 1004.74 1167.54 1002.18C1168.03 1001.14 1166.34 1000.24 1165.85 1001.29Z" fill="#CBCBCB"/>
<path d="M48.2548 448.111C50.0524 448.111 51.5096 446.795 51.5096 445.173C51.5096 443.55 50.0524 442.234 48.2548 442.234C46.4572 442.234 45 443.55 45 445.173C45 446.795 46.4572 448.111 48.2548 448.111Z" fill="white"/>
<path d="M227.438 472.805C229.235 472.805 230.693 471.489 230.693 469.867C230.693 468.244 229.235 466.928 227.438 466.928C225.64 466.928 224.183 468.244 224.183 469.867C224.183 471.489 225.64 472.805 227.438 472.805Z" fill="white"/>
<path d="M1129.96 474.497C1129.96 476.118 1128.51 477.435 1126.71 477.435C1124.91 477.435 1123.46 476.12 1123.46 474.497C1123.46 472.873 1124.91 471.558 1126.71 471.558C1128.51 471.56 1129.96 472.875 1129.96 474.497Z" fill="white"/>
<path d="M1058.16 425.109C1058.16 426.731 1056.7 428.047 1054.91 428.047C1053.11 428.047 1051.65 426.732 1051.65 425.109C1051.65 423.485 1053.11 422.17 1054.91 422.17C1056.7 422.17 1058.16 423.487 1058.16 425.109Z" fill="white"/>
<path d="M820.849 442.086C820.849 443.707 819.393 445.024 817.595 445.024C815.798 445.024 814.34 443.709 814.34 442.086C814.34 440.462 815.796 439.147 817.595 439.147C819.391 439.149 820.849 440.464 820.849 442.086Z" fill="white"/>
<path d="M719.52 622.921C719.52 625.319 717.366 627.264 714.709 627.264C712.052 627.264 709.898 625.319 709.898 622.921C709.898 620.522 712.052 618.577 714.709 618.577C717.366 618.577 719.52 620.522 719.52 622.921Z" fill="white"/>
<path d="M152.593 579.484C155.25 579.484 157.404 577.539 157.404 575.141C157.404 572.742 155.25 570.798 152.593 570.798C149.936 570.798 147.782 572.742 147.782 575.141C147.782 577.539 149.936 579.484 152.593 579.484Z" fill="white"/>
<path d="M1423.55 483.104C1425.35 483.104 1426.8 481.788 1426.8 480.165C1426.8 478.543 1425.35 477.227 1423.55 477.227C1421.75 477.227 1420.29 478.543 1420.29 480.165C1420.29 481.788 1421.75 483.104 1423.55 483.104Z" fill="white"/>
<path d="M1001.45 524.275C1001.45 526.618 999.349 528.516 996.754 528.516C994.158 528.516 992.056 526.616 992.056 524.275C992.056 521.932 994.16 520.034 996.754 520.034C999.347 520.034 1001.45 521.932 1001.45 524.275Z" fill="white"/>
<path d="M1011.16 599.512C1011.16 600.632 1010.15 601.539 1008.91 601.539C1007.67 601.539 1006.67 600.632 1006.67 599.512C1006.67 598.393 1007.67 597.484 1008.91 597.484C1010.15 597.485 1011.16 598.393 1011.16 599.512Z" fill="white"/>
<path d="M729.702 536.717C730.942 536.717 731.947 535.809 731.947 534.69C731.947 533.571 730.942 532.664 729.702 532.664C728.462 532.664 727.457 533.571 727.457 534.69C727.457 535.809 728.462 536.717 729.702 536.717Z" fill="white"/>
<path d="M456.056 662.791C456.056 663.911 455.051 664.818 453.811 664.818C452.571 664.818 451.566 663.911 451.566 662.791C451.566 661.672 452.571 660.765 453.811 660.765C455.051 660.765 456.056 661.672 456.056 662.791Z" fill="white"/>
<path d="M396.857 565.558C396.857 566.678 395.852 567.585 394.612 567.585C393.372 567.585 392.367 566.678 392.367 565.558C392.367 564.439 393.372 563.532 394.612 563.532C395.852 563.53 396.857 564.439 396.857 565.558Z" fill="white"/>
<path d="M344.93 435.913C344.93 437.032 343.925 437.939 342.685 437.939C341.445 437.939 340.44 437.032 340.44 435.913C340.44 434.793 341.445 433.886 342.685 433.886C343.925 433.885 344.93 434.793 344.93 435.913Z" fill="white"/>
<path d="M1359.75 599.81C1359.75 600.929 1358.75 601.836 1357.51 601.836C1356.27 601.836 1355.26 600.929 1355.26 599.81C1355.26 598.69 1356.27 597.783 1357.51 597.783C1358.75 597.783 1359.75 598.69 1359.75 599.81Z" fill="white"/>
<path d="M1281.28 447.776C1281.28 448.896 1280.28 449.803 1279.04 449.803C1277.8 449.803 1276.79 448.896 1276.79 447.776C1276.79 446.657 1277.8 445.75 1279.04 445.75C1280.27 445.75 1281.28 446.657 1281.28 447.776Z" fill="white"/>
<path d="M1347.96 431.312C1347.96 432.432 1346.95 433.339 1345.71 433.339C1344.47 433.339 1343.47 432.432 1343.47 431.312C1343.47 430.193 1344.47 429.286 1345.71 429.286C1346.95 429.286 1347.96 430.193 1347.96 431.312Z" fill="white"/>
<path d="M871.5 482.214C871.5 483.333 870.496 484.24 869.256 484.24C868.015 484.24 867.011 483.333 867.011 482.214C867.011 481.094 868.015 480.187 869.256 480.187C870.496 480.187 871.5 481.094 871.5 482.214Z" fill="white"/>
<path d="M299.407 516.169C299.407 517.288 298.403 518.195 297.162 518.195C295.922 518.195 294.918 517.288 294.918 516.169C294.918 515.049 295.922 514.142 297.162 514.142C298.403 514.142 299.407 515.049 299.407 516.169Z" fill="white"/>
<path d="M1185.54 537.293C1185.54 538.413 1184.53 539.32 1183.29 539.32C1182.05 539.32 1181.05 538.413 1181.05 537.293C1181.05 536.174 1182.05 535.267 1183.29 535.267C1184.53 535.265 1185.54 536.174 1185.54 537.293Z" fill="white"/>
<path d="M704.593 460.607C704.593 462.23 703.136 463.545 701.338 463.545C699.541 463.545 698.083 462.23 698.083 460.607C698.083 458.985 699.54 457.669 701.338 457.669C703.136 457.669 704.593 458.985 704.593 460.607Z" fill="white"/>
<path d="M76.9879 587.016C78.7855 587.016 80.2427 585.701 80.2427 584.078C80.2427 582.455 78.7855 581.14 76.9879 581.14C75.1904 581.14 73.7332 582.455 73.7332 584.078C73.7332 585.701 75.1904 587.016 76.9879 587.016Z" fill="white"/>
<path d="M586.462 505.216C586.462 506.838 585.005 508.154 583.207 508.154C581.411 508.154 579.952 506.839 579.952 505.216C579.952 503.594 581.409 502.278 583.207 502.278C585.005 502.279 586.462 503.594 586.462 505.216Z" fill="white"/>
<path d="M675.647 430.88C675.647 432.502 674.19 433.818 672.392 433.818C670.595 433.818 669.137 432.503 669.137 430.88C669.137 429.256 670.593 427.942 672.392 427.942C674.19 427.943 675.647 429.258 675.647 430.88Z" fill="white"/>
<path d="M475.422 467.294C475.422 468.916 473.965 470.233 472.167 470.233C470.37 470.233 468.912 468.918 468.912 467.294C468.912 465.672 470.368 464.356 472.167 464.356C473.965 464.358 475.422 465.672 475.422 467.294Z" fill="white"/>
<path d="M1305.2 565.543C1306.99 565.543 1308.45 564.227 1308.45 562.604C1308.45 560.982 1306.99 559.666 1305.2 559.666C1303.4 559.666 1301.94 560.982 1301.94 562.604C1301.94 564.227 1303.4 565.543 1305.2 565.543Z" fill="#94AAD7"/>
<path d="M1224.33 605.686C1226.12 605.686 1227.58 604.371 1227.58 602.748C1227.58 601.125 1226.12 599.81 1224.33 599.81C1222.53 599.81 1221.07 601.125 1221.07 602.748C1221.07 604.371 1222.53 605.686 1224.33 605.686Z" fill="#94AAD7"/>
<path d="M1241.26 502.13C1243.06 502.13 1244.51 500.815 1244.51 499.192C1244.51 497.569 1243.06 496.254 1241.26 496.254C1239.46 496.254 1238 497.569 1238 499.192C1238 500.815 1239.46 502.13 1241.26 502.13Z" fill="#94AAD7"/>
<path d="M530.208 439C532.006 439 533.463 437.684 533.463 436.062C533.463 434.439 532.006 433.123 530.208 433.123C528.411 433.123 526.954 434.439 526.954 436.062C526.954 437.684 528.411 439 530.208 439Z" fill="#94AAD7"/>
<path d="M909.586 451.198C911.383 451.198 912.841 449.883 912.841 448.26C912.841 446.637 911.383 445.322 909.586 445.322C907.788 445.322 906.331 446.637 906.331 448.26C906.331 449.883 907.788 451.198 909.586 451.198Z" fill="#94AAD7"/>
<path d="M1150.98 485.152C1152.77 485.152 1154.23 483.836 1154.23 482.214C1154.23 480.591 1152.77 479.275 1150.98 479.275C1149.18 479.275 1147.72 480.591 1147.72 482.214C1147.72 483.836 1149.18 485.152 1150.98 485.152Z" fill="#94AAD7"/>
<path d="M367.957 596.574C367.957 598.196 369.414 599.512 371.212 599.512C373.008 599.512 374.467 598.197 374.467 596.574C374.467 594.952 373.01 593.635 371.212 593.635C369.415 593.637 367.957 594.952 367.957 596.574Z" fill="#94AAD7"/>
<path d="M650.05 559.533C650.05 561.155 651.506 562.471 653.305 562.471C655.103 562.471 656.559 561.156 656.559 559.533C656.559 557.911 655.103 556.595 653.305 556.595C651.506 556.595 650.05 557.911 650.05 559.533Z" fill="#94AAD7"/>
<path d="M1248.74 695.351C1248.74 697.75 1250.9 699.694 1253.55 699.694C1256.21 699.694 1258.36 697.75 1258.36 695.351C1258.36 692.952 1256.21 691.008 1253.55 691.008C1250.9 691.008 1248.74 692.952 1248.74 695.351Z" fill="#94AAD7"/>
<path d="M49.9638 636.406C51.7613 636.406 53.2186 635.09 53.2186 633.467C53.2186 631.845 51.7613 630.529 49.9638 630.529C48.1662 630.529 46.709 631.845 46.709 633.467C46.709 635.09 48.1662 636.406 49.9638 636.406Z" fill="#94AAD7"/>
<path d="M479.516 650.593C479.516 652.936 481.619 654.834 484.214 654.834C486.809 654.834 488.911 652.934 488.911 650.593C488.911 648.25 486.807 646.352 484.214 646.352C481.619 646.352 479.516 648.25 479.516 650.593Z" fill="#94AAD7"/>
<path d="M459.744 716.959C459.744 718.079 460.748 718.986 461.989 718.986C463.229 718.986 464.233 718.079 464.233 716.959C464.233 715.84 463.229 714.933 461.989 714.933C460.748 714.931 459.744 715.84 459.744 716.959Z" fill="#94AAD7"/>
<path d="M727.021 676.324C727.021 677.444 728.025 678.351 729.265 678.351C730.505 678.351 731.51 677.444 731.51 676.324C731.51 675.205 730.505 674.298 729.265 674.298C728.025 674.298 727.021 675.205 727.021 676.324Z" fill="#94AAD7"/>
<path d="M505.738 571.247C505.738 572.367 506.743 573.274 507.983 573.274C509.223 573.274 510.228 572.367 510.228 571.247C510.228 570.128 509.223 569.221 507.983 569.221C506.743 569.221 505.738 570.128 505.738 571.247Z" fill="#94AAD7"/>
<path d="M590.081 713.178C590.081 714.297 591.086 715.204 592.326 715.204C593.566 715.204 594.571 714.297 594.571 713.178C594.571 712.058 593.566 711.151 592.326 711.151C591.086 711.151 590.081 712.058 590.081 713.178Z" fill="#94AAD7"/>
<path d="M339.332 758.45C339.332 759.57 340.337 760.477 341.577 760.477C342.817 760.477 343.822 759.57 343.822 758.45C343.822 757.331 342.817 756.424 341.577 756.424C340.339 756.424 339.332 757.331 339.332 758.45Z" fill="#94AAD7"/>
<path d="M1011.83 756.424C1011.83 757.543 1012.83 758.45 1014.07 758.45C1015.31 758.45 1016.32 757.543 1016.32 756.424C1016.32 755.304 1015.31 754.397 1014.07 754.397C1012.83 754.397 1011.83 755.304 1011.83 756.424Z" fill="#94AAD7"/>
<path d="M1074.04 683.004C1074.04 684.123 1075.05 685.031 1076.29 685.031C1077.53 685.031 1078.53 684.123 1078.53 683.004C1078.53 681.885 1077.53 680.977 1076.29 680.977C1075.05 680.977 1074.04 681.885 1074.04 683.004Z" fill="#94AAD7"/>
<path d="M1101.4 557.99C1101.4 559.11 1102.4 560.017 1103.64 560.017C1104.88 560.017 1105.89 559.11 1105.89 557.99C1105.89 556.871 1104.88 555.964 1103.64 555.964C1102.4 555.962 1101.4 556.871 1101.4 557.99Z" fill="#94AAD7"/>
<path d="M111.149 717.257C111.149 718.376 112.153 719.284 113.393 719.284C114.634 719.284 115.638 718.376 115.638 717.257C115.638 716.137 114.634 715.23 113.393 715.23C112.153 715.23 111.149 716.137 111.149 717.257Z" fill="#94AAD7"/>
<path d="M117.65 539.804C117.65 540.923 118.654 541.83 119.894 541.83C121.134 541.83 122.139 540.923 122.139 539.804C122.139 538.684 121.134 537.777 119.894 537.777C118.654 537.776 117.65 538.684 117.65 539.804Z" fill="#94AAD7"/>
<path d="M1189.76 609.981C1189.76 611.101 1190.77 612.008 1192.01 612.008C1193.25 612.008 1194.25 611.101 1194.25 609.981C1194.25 608.862 1193.25 607.955 1192.01 607.955C1190.77 607.953 1189.76 608.862 1189.76 609.981Z" fill="#94AAD7"/>
<path d="M874.987 723.498C876.227 723.498 877.232 722.591 877.232 721.471C877.232 720.352 876.227 719.445 874.987 719.445C873.747 719.445 872.742 720.352 872.742 721.471C872.742 722.591 873.747 723.498 874.987 723.498Z" fill="#94AAD7"/>
<path d="M1403.91 737.902C1403.91 739.022 1404.91 739.929 1406.15 739.929C1407.39 739.929 1408.4 739.022 1408.4 737.902C1408.4 736.783 1407.39 735.876 1406.15 735.876C1404.91 735.876 1403.91 736.783 1403.91 737.902Z" fill="#94AAD7"/>
<path d="M158.68 750.28C158.68 751.4 159.685 752.307 160.925 752.307C162.165 752.307 163.17 751.4 163.17 750.28C163.17 749.161 162.165 748.254 160.925 748.254C159.685 748.254 158.68 749.161 158.68 750.28Z" fill="#94AAD7"/>
<path d="M285.359 654.739C285.359 655.859 286.364 656.766 287.604 656.766C288.844 656.766 289.849 655.859 289.849 654.739C289.849 653.62 288.844 652.711 287.604 652.711C286.364 652.713 285.359 653.62 285.359 654.739Z" fill="#94AAD7"/>
<path d="M829.398 650.295C831.195 650.295 832.653 648.98 832.653 647.357C832.653 645.734 831.195 644.419 829.398 644.419C827.6 644.419 826.143 645.734 826.143 647.357C826.143 648.98 827.6 650.295 829.398 650.295Z" fill="#94AAD7"/>
<path d="M1405.71 664.484C1405.71 666.108 1407.17 667.423 1408.97 667.423C1410.77 667.423 1412.22 666.108 1412.22 664.484C1412.22 662.862 1410.77 661.546 1408.97 661.546C1407.17 661.546 1405.71 662.861 1405.71 664.484Z" fill="#94AAD7"/>
<path d="M880.686 601.056C880.686 602.678 882.143 603.995 883.941 603.995C885.737 603.995 887.196 602.68 887.196 601.056C887.196 599.433 885.739 598.118 883.941 598.118C882.144 598.118 880.686 599.433 880.686 601.056Z" fill="#94AAD7"/>
<path d="M776.399 550.124C776.399 551.746 777.855 553.062 779.654 553.062C781.45 553.062 782.909 551.748 782.909 550.124C782.909 548.501 781.452 547.186 779.654 547.186C777.855 547.186 776.399 548.501 776.399 550.124Z" fill="#94AAD7"/>
<path d="M983.266 582.535C983.266 584.157 984.722 585.473 986.52 585.473C988.317 585.473 989.775 584.159 989.775 582.535C989.775 580.913 988.319 579.597 986.52 579.597C984.722 579.597 983.266 580.912 983.266 582.535Z" fill="#94AAD7"/>
<path opacity="0.7" d="M1261.94 496.105C1263.73 496.105 1265.19 494.789 1265.19 493.167C1265.19 491.544 1263.73 490.228 1261.94 490.228C1260.14 490.228 1258.68 491.544 1258.68 493.167C1258.68 494.789 1260.14 496.105 1261.94 496.105Z" fill="#E7F4F9"/>
<path opacity="0.7" d="M363.563 485.815C363.563 487.437 365.02 488.754 366.818 488.754C368.615 488.754 370.073 487.439 370.073 485.815C370.073 484.194 368.617 482.877 366.818 482.877C365.02 482.877 363.563 484.194 363.563 485.815Z" fill="#E7F4F9"/>
<path opacity="0.7" d="M433.089 434.369C433.089 435.99 434.545 437.307 436.344 437.307C438.14 437.307 439.598 435.992 439.598 434.369C439.598 432.745 438.142 431.43 436.344 431.43C434.547 431.432 433.089 432.747 433.089 434.369Z" fill="#E7F4F9"/>
<path opacity="0.7" d="M671.78 468.324C673.578 468.324 675.035 467.008 675.035 465.386C675.035 463.763 673.578 462.447 671.78 462.447C669.983 462.447 668.525 463.763 668.525 465.386C668.525 467.008 669.983 468.324 671.78 468.324Z" fill="#E7F4F9"/>
<path opacity="0.7" d="M65.8272 506.404C67.6247 506.404 69.082 505.088 69.082 503.465C69.082 501.843 67.6247 500.527 65.8272 500.527C64.0296 500.527 62.5724 501.843 62.5724 503.465C62.5724 505.088 64.0296 506.404 65.8272 506.404Z" fill="#E7F4F9"/>
<path opacity="0.7" d="M518.242 598.997C518.242 600.117 519.247 601.024 520.487 601.024C521.727 601.024 522.732 600.117 522.732 598.997C522.732 597.878 521.727 596.971 520.487 596.971C519.247 596.971 518.242 597.878 518.242 598.997Z" fill="#E7F4F9"/>
<path opacity="0.7" d="M563.866 670.024C563.866 671.144 564.871 672.051 566.111 672.051C567.351 672.051 568.355 671.144 568.355 670.024C568.355 668.905 567.351 667.998 566.111 667.998C564.872 667.998 563.866 668.905 563.866 670.024Z" fill="#E7F4F9"/>
<path opacity="0.7" d="M1035.56 537.535C1036.8 537.535 1037.81 536.628 1037.81 535.509C1037.81 534.39 1036.8 533.482 1035.56 533.482C1034.32 533.482 1033.32 534.39 1033.32 535.509C1033.32 536.628 1034.32 537.535 1035.56 537.535Z" fill="#E7F4F9"/>
<path opacity="0.7" d="M1092.52 588.857C1092.52 589.976 1093.52 590.883 1094.76 590.883C1096 590.883 1097.01 589.976 1097.01 588.857C1097.01 587.737 1096 586.83 1094.76 586.83C1093.52 586.83 1092.52 587.737 1092.52 588.857Z" fill="#E7F4F9"/>
<path opacity="0.7" d="M1144.45 459.213C1144.45 460.332 1145.45 461.239 1146.69 461.239C1147.93 461.239 1148.93 460.332 1148.93 459.213C1148.93 458.093 1147.93 457.186 1146.69 457.186C1145.45 457.186 1144.45 458.093 1144.45 459.213Z" fill="#E7F4F9"/>
<path opacity="0.7" d="M129.624 623.11C129.624 624.229 130.629 625.136 131.869 625.136C133.109 625.136 134.114 624.229 134.114 623.11C134.114 621.99 133.109 621.082 131.869 621.082C130.629 621.083 129.624 621.99 129.624 623.11Z" fill="#E7F4F9"/>
<path opacity="0.7" d="M184.325 458.003C184.325 459.123 185.33 460.03 186.57 460.03C187.81 460.03 188.815 459.123 188.815 458.003C188.815 456.884 187.81 455.977 186.57 455.977C185.33 455.977 184.325 456.884 184.325 458.003Z" fill="#E7F4F9"/>
<path opacity="0.7" d="M138.734 431.312C138.734 432.432 139.739 433.339 140.979 433.339C142.219 433.339 143.224 432.432 143.224 431.312C143.224 430.193 142.219 429.286 140.979 429.286C139.739 429.286 138.734 430.193 138.734 431.312Z" fill="#E7F4F9"/>
<path opacity="0.7" d="M608.351 484.786C608.351 485.905 609.355 486.812 610.595 486.812C611.836 486.812 612.84 485.905 612.84 484.786C612.84 483.666 611.836 482.759 610.595 482.759C609.357 482.759 608.351 483.666 608.351 484.786Z" fill="#E7F4F9"/>
<path opacity="0.7" d="M1230.66 569.159C1230.66 570.278 1231.67 571.185 1232.91 571.185C1234.15 571.185 1235.15 570.278 1235.15 569.159C1235.15 568.039 1234.15 567.132 1232.91 567.132C1231.67 567.132 1230.66 568.039 1230.66 569.159Z" fill="#E7F4F9"/>
<path opacity="0.7" d="M303.835 560.592C303.835 561.711 304.84 562.618 306.08 562.618C307.32 562.618 308.325 561.711 308.325 560.592C308.325 559.472 307.32 558.565 306.08 558.565C304.84 558.565 303.835 559.472 303.835 560.592Z" fill="#E7F4F9"/>
<path opacity="0.7" d="M765.734 476.407C765.734 478.029 767.191 479.345 768.989 479.345C770.786 479.345 772.244 478.03 772.244 476.407C772.244 474.785 770.787 473.469 768.989 473.469C767.193 473.469 765.734 474.783 765.734 476.407Z" fill="#E7F4F9"/>
<path opacity="0.7" d="M1409.13 607.378C1409.13 609.001 1410.59 610.316 1412.39 610.316C1414.19 610.316 1415.64 609.001 1415.64 607.378C1415.64 605.756 1414.19 604.44 1412.39 604.44C1410.59 604.44 1409.13 605.756 1409.13 607.378Z" fill="#E7F4F9"/>
<path opacity="0.7" d="M902.911 528.516C902.911 530.138 904.368 531.454 906.166 531.454C907.963 531.454 909.421 530.139 909.421 528.516C909.421 526.894 907.964 525.578 906.166 525.578C904.369 525.578 902.911 526.894 902.911 528.516Z" fill="#E7F4F9"/>
<path opacity="0.7" d="M780.552 418.787C780.552 420.409 782.008 421.725 783.807 421.725C785.603 421.725 787.061 420.411 787.061 418.787C787.061 417.164 785.605 415.849 783.807 415.849C782.008 415.849 780.552 417.164 780.552 418.787Z" fill="#E7F4F9"/>
<path opacity="0.7" d="M1013.95 490.594C1013.95 492.218 1015.41 493.533 1017.21 493.533C1019 493.533 1020.46 492.218 1020.46 490.594C1020.46 488.972 1019.01 487.656 1017.21 487.656C1015.41 487.656 1013.95 488.972 1013.95 490.594Z" fill="#E7F4F9"/>
<g opacity="0.7">
<path d="M279.611 445.606C281.409 445.606 282.866 443.725 282.866 441.406C282.866 439.086 281.409 437.205 279.611 437.205C277.814 437.205 276.356 439.086 276.356 441.406C276.356 443.725 277.814 445.606 279.611 445.606Z" fill="#E7F4F9"/>
<path d="M302.891 525.052C304.689 525.052 306.146 523.171 306.146 520.852C306.146 518.532 304.689 516.652 302.891 516.652C301.093 516.652 299.636 518.532 299.636 520.852C299.636 523.171 301.093 525.052 302.891 525.052Z" fill="#E7F4F9"/>
<path d="M267.559 334.89C269.357 334.89 270.814 333.01 270.814 330.69C270.814 328.37 269.357 326.49 267.559 326.49C265.761 326.49 264.304 328.37 264.304 330.69C264.304 333.01 265.761 334.89 267.559 334.89Z" fill="#E7F4F9"/>
<path d="M1054.6 264.717C1056.4 264.717 1057.85 262.837 1057.85 260.517C1057.85 258.198 1056.4 256.317 1054.6 256.317C1052.8 256.317 1051.35 258.198 1051.35 260.517C1051.35 262.837 1052.8 264.717 1054.6 264.717Z" fill="#E7F4F9"/>
<path d="M438.524 361.791C440.321 361.791 441.778 359.91 441.778 357.591C441.778 355.271 440.321 353.391 438.524 353.391C436.726 353.391 435.269 355.271 435.269 357.591C435.269 359.91 436.726 361.791 438.524 361.791Z" fill="#E7F4F9"/>
<path d="M1192.88 520.639C1192.88 522.957 1191.42 524.839 1189.63 524.839C1187.83 524.839 1186.37 522.96 1186.37 520.639C1186.37 518.318 1187.83 516.439 1189.63 516.439C1191.42 516.439 1192.88 518.318 1192.88 520.639Z" fill="#E7F4F9"/>
<path d="M977.631 420.196C979.428 420.196 980.886 418.316 980.886 415.996C980.886 413.677 979.428 411.796 977.631 411.796C975.833 411.796 974.376 413.677 974.376 415.996C974.376 418.316 975.833 420.196 977.631 420.196Z" fill="#E7F4F9"/>
<path d="M922.923 341.524C925.58 341.524 927.734 338.744 927.734 335.316C927.734 331.887 925.58 329.107 922.923 329.107C920.266 329.107 918.112 331.887 918.112 335.316C918.112 338.744 920.266 341.524 922.923 341.524Z" fill="#E7F4F9"/>
<path d="M331.255 422.118C333.912 422.118 336.066 419.339 336.066 415.91C336.066 412.481 333.912 409.702 331.255 409.702C328.598 409.702 326.444 412.481 326.444 415.91C326.444 419.339 328.598 422.118 331.255 422.118Z" fill="#E7F4F9"/>
<path d="M1125.06 446.796C1125.06 448.396 1124.06 449.693 1122.82 449.693C1121.58 449.693 1120.58 448.396 1120.58 446.796C1120.58 445.196 1121.58 443.899 1122.82 443.899C1124.06 443.899 1125.06 445.196 1125.06 446.796Z" fill="#E7F4F9"/>
<path d="M898.953 464.791C898.953 466.392 897.948 467.688 896.708 467.688C895.468 467.688 894.463 466.392 894.463 464.791C894.463 463.191 895.468 461.892 896.708 461.892C897.948 461.892 898.953 463.191 898.953 464.791Z" fill="#E7F4F9"/>
<path d="M1083.63 552.997C1083.63 554.597 1082.62 555.894 1081.38 555.894C1080.14 555.894 1079.14 554.597 1079.14 552.997C1079.14 551.397 1080.14 550.098 1081.38 550.098C1082.62 550.098 1083.63 551.397 1083.63 552.997Z" fill="#E7F4F9"/>
<path d="M1002.14 496.635C1002.14 498.235 1001.13 499.532 999.891 499.532C998.65 499.532 997.646 498.235 997.646 496.635C997.646 495.035 998.65 493.738 999.891 493.738C1001.13 493.738 1002.14 495.035 1002.14 496.635Z" fill="#E7F4F9"/>
<path d="M1239.78 560.617C1239.78 562.217 1238.77 563.514 1237.53 563.514C1236.29 563.514 1235.29 562.217 1235.29 560.617C1235.29 559.017 1236.29 557.72 1237.53 557.72C1238.77 557.718 1239.78 559.014 1239.78 560.617Z" fill="#E7F4F9"/>
<path d="M486.36 532.362C486.36 533.962 485.355 535.259 484.115 535.259C482.875 535.259 481.87 533.962 481.87 532.362C481.87 530.761 482.875 529.465 484.115 529.465C485.353 529.463 486.36 530.761 486.36 532.362Z" fill="#E7F4F9"/>
<path d="M512.607 332.374C512.607 333.975 511.603 335.271 510.363 335.271C509.122 335.271 508.118 333.975 508.118 332.374C508.118 330.774 509.122 329.477 510.363 329.477C511.603 329.477 512.607 330.774 512.607 332.374Z" fill="#E7F4F9"/>
<path d="M513.713 430.962C513.713 432.562 512.709 433.859 511.469 433.859C510.229 433.859 509.224 432.562 509.224 430.962C509.224 429.361 510.229 428.065 511.469 428.065C512.709 428.065 513.713 429.361 513.713 430.962Z" fill="#E7F4F9"/>
<path d="M120.494 416.167C120.494 417.767 119.49 419.064 118.249 419.064C117.009 419.064 116.005 417.767 116.005 416.167C116.005 414.567 117.009 413.268 118.249 413.268C119.49 413.268 120.494 414.567 120.494 416.167Z" fill="#E7F4F9"/>
<path d="M395.047 509.129C395.047 510.729 394.042 512.026 392.802 512.026C391.562 512.026 390.557 510.729 390.557 509.129C390.557 507.529 391.562 506.232 392.802 506.232C394.042 506.232 395.047 507.529 395.047 509.129Z" fill="#E7F4F9"/>
<path d="M688.098 395.574C688.098 397.174 687.093 398.471 685.853 398.471C684.613 398.471 683.608 397.174 683.608 395.574C683.608 393.974 684.613 392.677 685.853 392.677C687.091 392.677 688.098 393.974 688.098 395.574Z" fill="#E7F4F9"/>
<path d="M270.977 579.47C270.977 581.07 269.972 582.367 268.732 582.367C267.492 582.367 266.487 581.07 266.487 579.47C266.487 577.87 267.492 576.573 268.732 576.573C269.972 576.573 270.977 577.87 270.977 579.47Z" fill="#E7F4F9"/>
<path d="M1402.7 508.872C1402.7 510.472 1401.69 511.769 1400.45 511.769C1399.21 511.769 1398.21 510.472 1398.21 508.872C1398.21 507.272 1399.21 505.975 1400.45 505.975C1401.69 505.973 1402.7 507.272 1402.7 508.872Z" fill="#E7F4F9"/>
<path d="M755.411 351.504C757.208 351.504 758.666 349.624 758.666 347.304C758.666 344.985 757.208 343.104 755.411 343.104C753.613 343.104 752.156 344.985 752.156 347.304C752.156 349.624 753.613 351.504 755.411 351.504Z" fill="#E7F4F9"/>
<path d="M179.096 371.785C179.096 374.103 177.639 375.985 175.841 375.985C174.045 375.985 172.586 374.106 172.586 371.785C172.586 369.467 174.043 367.585 175.841 367.585C177.639 367.585 179.096 369.467 179.096 371.785Z" fill="#E7F4F9"/>
<path d="M704.123 496.369C704.123 498.687 702.666 500.569 700.868 500.569C699.071 500.569 697.613 498.69 697.613 496.369C697.613 494.051 699.07 492.169 700.868 492.169C702.664 492.171 704.123 494.051 704.123 496.369Z" fill="#E7F4F9"/>
<path d="M808.41 423.563C808.41 425.882 806.953 427.763 805.155 427.763C803.358 427.763 801.9 425.884 801.9 423.563C801.9 421.243 803.357 419.363 805.155 419.363C806.953 419.365 808.41 421.245 808.41 423.563Z" fill="#E7F4F9"/>
<path d="M600.37 333.844C600.37 336.162 598.913 338.044 597.115 338.044C595.317 338.044 593.86 336.164 593.86 333.844C593.86 331.525 595.317 329.644 597.115 329.644C598.913 329.644 600.37 331.525 600.37 333.844Z" fill="#E7F4F9"/>
</g>
</g>
<path d="M59.2548 143.941C61.0524 143.941 62.5096 142.625 62.5096 141.002C62.5096 139.38 61.0524 138.064 59.2548 138.064C57.4572 138.064 56 139.38 56 141.002C56 142.625 57.4572 143.941 59.2548 143.941Z" fill="white"/>
<path d="M238.438 168.634C240.235 168.634 241.693 167.319 241.693 165.696C241.693 164.073 240.235 162.758 238.438 162.758C236.64 162.758 235.183 164.073 235.183 165.696C235.183 167.319 236.64 168.634 238.438 168.634Z" fill="white"/>
<path d="M1140.96 170.326C1140.96 171.948 1139.51 173.264 1137.71 173.264C1135.91 173.264 1134.46 171.95 1134.46 170.326C1134.46 168.703 1135.91 167.388 1137.71 167.388C1139.51 167.389 1140.96 168.704 1140.96 170.326Z" fill="white"/>
<path d="M1069.16 120.938C1069.16 122.56 1067.7 123.877 1065.91 123.877C1064.11 123.877 1062.65 122.562 1062.65 120.938C1062.65 119.315 1064.11 118 1065.91 118C1067.7 118 1069.16 119.316 1069.16 120.938Z" fill="white"/>
<path d="M831.849 137.915C831.849 139.537 830.393 140.853 828.595 140.853C826.798 140.853 825.34 139.539 825.34 137.915C825.34 136.292 826.796 134.977 828.595 134.977C830.391 134.978 831.849 136.293 831.849 137.915Z" fill="white"/>
<path d="M730.52 318.75C730.52 321.149 728.366 323.093 725.709 323.093C723.052 323.093 720.898 321.149 720.898 318.75C720.898 316.351 723.052 314.407 725.709 314.407C728.366 314.407 730.52 316.351 730.52 318.75Z" fill="white"/>
<path d="M163.593 275.313C166.25 275.313 168.404 273.369 168.404 270.97C168.404 268.572 166.25 266.627 163.593 266.627C160.936 266.627 158.782 268.572 158.782 270.97C158.782 273.369 160.936 275.313 163.593 275.313Z" fill="white"/>
<path d="M1434.55 178.933C1436.35 178.933 1437.8 177.618 1437.8 175.995C1437.8 174.372 1436.35 173.057 1434.55 173.057C1432.75 173.057 1431.29 174.372 1431.29 175.995C1431.29 177.618 1432.75 178.933 1434.55 178.933Z" fill="white"/>
<path d="M1012.45 220.105C1012.45 222.448 1010.35 224.345 1007.75 224.345C1005.16 224.345 1003.06 222.446 1003.06 220.105C1003.06 217.762 1005.16 215.864 1007.75 215.864C1010.35 215.864 1012.45 217.762 1012.45 220.105Z" fill="white"/>
<path d="M1022.16 295.342C1022.16 296.461 1021.15 297.368 1019.91 297.368C1018.67 297.368 1017.67 296.461 1017.67 295.342C1017.67 294.222 1018.67 293.314 1019.91 293.314C1021.15 293.315 1022.16 294.222 1022.16 295.342Z" fill="white"/>
<path d="M740.702 232.546C741.942 232.546 742.947 231.639 742.947 230.52C742.947 229.4 741.942 228.493 740.702 228.493C739.462 228.493 738.457 229.4 738.457 230.52C738.457 231.639 739.462 232.546 740.702 232.546Z" fill="white"/>
<path d="M467.056 358.621C467.056 359.74 466.051 360.647 464.811 360.647C463.571 360.647 462.566 359.74 462.566 358.621C462.566 357.501 463.571 356.594 464.811 356.594C466.051 356.594 467.056 357.501 467.056 358.621Z" fill="white"/>
<path d="M407.857 261.388C407.857 262.507 406.852 263.414 405.612 263.414C404.372 263.414 403.367 262.507 403.367 261.388C403.367 260.268 404.372 259.361 405.612 259.361C406.852 259.36 407.857 260.268 407.857 261.388Z" fill="white"/>
<path d="M355.93 131.742C355.93 132.862 354.925 133.769 353.685 133.769C352.445 133.769 351.44 132.862 351.44 131.742C351.44 130.623 352.445 129.716 353.685 129.716C354.925 129.714 355.93 130.623 355.93 131.742Z" fill="white"/>
<path d="M1370.75 295.639C1370.75 296.759 1369.75 297.666 1368.51 297.666C1367.27 297.666 1366.26 296.759 1366.26 295.639C1366.26 294.52 1367.27 293.613 1368.51 293.613C1369.75 293.613 1370.75 294.52 1370.75 295.639Z" fill="white"/>
<path d="M1292.28 143.606C1292.28 144.725 1291.28 145.632 1290.04 145.632C1288.8 145.632 1287.79 144.725 1287.79 143.606C1287.79 142.486 1288.8 141.579 1290.04 141.579C1291.27 141.579 1292.28 142.486 1292.28 143.606Z" fill="white"/>
<path d="M1358.96 127.142C1358.96 128.261 1357.95 129.169 1356.71 129.169C1355.47 129.169 1354.47 128.261 1354.47 127.142C1354.47 126.023 1355.47 125.115 1356.71 125.115C1357.95 125.115 1358.96 126.023 1358.96 127.142Z" fill="white"/>
<path d="M882.5 178.043C882.5 179.163 881.496 180.07 880.256 180.07C879.015 180.07 878.011 179.163 878.011 178.043C878.011 176.924 879.015 176.017 880.256 176.017C881.496 176.017 882.5 176.924 882.5 178.043Z" fill="white"/>
<path d="M310.407 211.998C310.407 213.118 309.403 214.025 308.162 214.025C306.922 214.025 305.918 213.118 305.918 211.998C305.918 210.879 306.922 209.972 308.162 209.972C309.403 209.972 310.407 210.879 310.407 211.998Z" fill="white"/>
<path d="M1196.54 233.123C1196.54 234.243 1195.53 235.15 1194.29 235.15C1193.05 235.15 1192.05 234.243 1192.05 233.123C1192.05 232.004 1193.05 231.096 1194.29 231.096C1195.53 231.095 1196.54 232.004 1196.54 233.123Z" fill="white"/>
<path d="M715.593 156.436C715.593 158.06 714.136 159.375 712.338 159.375C710.541 159.375 709.083 158.06 709.083 156.436C709.083 154.815 710.54 153.498 712.338 153.498C714.136 153.498 715.593 154.815 715.593 156.436Z" fill="white"/>
<path d="M87.9879 282.846C89.7855 282.846 91.2427 281.53 91.2427 279.908C91.2427 278.285 89.7855 276.969 87.9879 276.969C86.1904 276.969 84.7332 278.285 84.7332 279.908C84.7332 281.53 86.1904 282.846 87.9879 282.846Z" fill="white"/>
<path d="M597.462 201.045C597.462 202.667 596.005 203.984 594.207 203.984C592.411 203.984 590.952 202.669 590.952 201.045C590.952 199.424 592.409 198.107 594.207 198.107C596.005 198.109 597.462 199.424 597.462 201.045Z" fill="white"/>
<path d="M686.647 126.709C686.647 128.331 685.19 129.648 683.392 129.648C681.595 129.648 680.137 128.333 680.137 126.709C680.137 125.086 681.593 123.771 683.392 123.771C685.19 123.773 686.647 125.088 686.647 126.709Z" fill="white"/>
<path d="M486.422 163.124C486.422 164.746 484.965 166.062 483.167 166.062C481.37 166.062 479.912 164.747 479.912 163.124C479.912 161.502 481.368 160.186 483.167 160.186C484.965 160.187 486.422 161.502 486.422 163.124Z" fill="white"/>
<path d="M30.4379 78.6345C32.2355 78.6345 33.6927 77.319 33.6927 75.6962C33.6927 74.0734 32.2355 72.7579 30.4379 72.7579C28.6403 72.7579 27.1831 74.0734 27.1831 75.6962C27.1831 77.319 28.6403 78.6345 30.4379 78.6345Z" fill="white"/>
<path d="M932.965 80.3261C932.965 81.948 931.508 83.2644 929.71 83.2644C927.913 83.2644 926.455 81.9495 926.455 80.3261C926.455 78.7027 927.912 77.3878 929.71 77.3878C931.508 77.3894 932.965 78.7043 932.965 80.3261Z" fill="white"/>
<path d="M861.16 30.9383C861.16 32.5601 859.703 33.8766 857.905 33.8766C856.107 33.8766 854.65 32.5617 854.65 30.9383C854.65 29.3149 856.107 28 857.905 28C859.703 28 861.16 29.3164 861.16 30.9383Z" fill="white"/>
<path d="M623.849 47.9152C623.849 49.537 622.393 50.8534 620.595 50.8534C618.798 50.8534 617.34 49.5386 617.34 47.9152C617.34 46.2917 618.796 44.9769 620.595 44.9769C622.391 44.9784 623.849 46.2933 623.849 47.9152Z" fill="white"/>
<path d="M522.52 228.75C522.52 231.149 520.366 233.093 517.709 233.093C515.052 233.093 512.898 231.149 512.898 228.75C512.898 226.351 515.052 224.407 517.709 224.407C520.366 224.407 522.52 226.351 522.52 228.75Z" fill="white"/>
<path d="M1226.55 88.9332C1228.35 88.9332 1229.8 87.6177 1229.8 85.9949C1229.8 84.3721 1228.35 83.0566 1226.55 83.0566C1224.75 83.0566 1223.29 84.3721 1223.29 85.9949C1223.29 87.6177 1224.75 88.9332 1226.55 88.9332Z" fill="white"/>
<path d="M804.451 130.105C804.451 132.448 802.349 134.345 799.754 134.345C797.158 134.345 795.056 132.446 795.056 130.105C795.056 127.762 797.16 125.864 799.754 125.864C802.347 125.864 804.451 127.762 804.451 130.105Z" fill="white"/>
<path d="M814.156 205.342C814.156 206.461 813.151 207.368 811.911 207.368C810.671 207.368 809.666 206.461 809.666 205.342C809.666 204.222 810.671 203.314 811.911 203.314C813.151 203.315 814.156 204.222 814.156 205.342Z" fill="white"/>
<path d="M532.702 142.546C533.942 142.546 534.947 141.639 534.947 140.52C534.947 139.4 533.942 138.493 532.702 138.493C531.462 138.493 530.457 139.4 530.457 140.52C530.457 141.639 531.462 142.546 532.702 142.546Z" fill="white"/>
<path d="M259.056 268.621C259.056 269.74 258.051 270.647 256.811 270.647C255.571 270.647 254.566 269.74 254.566 268.621C254.566 267.501 255.571 266.594 256.811 266.594C258.051 266.594 259.056 267.501 259.056 268.621Z" fill="white"/>
<path d="M199.857 171.388C199.857 172.507 198.852 173.414 197.612 173.414C196.372 173.414 195.367 172.507 195.367 171.388C195.367 170.268 196.372 169.361 197.612 169.361C198.852 169.36 199.857 170.268 199.857 171.388Z" fill="white"/>
<path d="M147.93 41.7425C147.93 42.8619 146.925 43.769 145.685 43.769C144.445 43.769 143.44 42.8619 143.44 41.7425C143.44 40.623 144.445 39.7159 145.685 39.7159C146.925 39.7143 147.93 40.623 147.93 41.7425Z" fill="white"/>
<path d="M1162.75 205.639C1162.75 206.759 1161.75 207.666 1160.51 207.666C1159.27 207.666 1158.26 206.759 1158.26 205.639C1158.26 204.52 1159.27 203.613 1160.51 203.613C1161.75 203.613 1162.75 204.52 1162.75 205.639Z" fill="white"/>
<path d="M1084.28 53.6056C1084.28 54.7251 1083.28 55.6322 1082.04 55.6322C1080.8 55.6322 1079.79 54.7251 1079.79 53.6056C1079.79 52.4862 1080.8 51.5791 1082.04 51.5791C1083.27 51.5791 1084.28 52.4862 1084.28 53.6056Z" fill="white"/>
<path d="M1150.96 37.142C1150.96 38.2615 1149.95 39.1686 1148.71 39.1686C1147.47 39.1686 1146.47 38.2615 1146.47 37.142C1146.47 36.0225 1147.47 35.1154 1148.71 35.1154C1149.95 35.1154 1150.96 36.0225 1150.96 37.142Z" fill="white"/>
<path d="M674.5 88.0432C674.5 89.1627 673.496 90.0697 672.256 90.0697C671.015 90.0697 670.011 89.1627 670.011 88.0432C670.011 86.9237 671.015 86.0166 672.256 86.0166C673.496 86.0166 674.5 86.9237 674.5 88.0432Z" fill="white"/>
<path d="M102.407 121.998C102.407 123.118 101.403 124.025 100.162 124.025C98.9224 124.025 97.9176 123.118 97.9176 121.998C97.9176 120.879 98.9224 119.972 100.162 119.972C101.403 119.972 102.407 120.879 102.407 121.998Z" fill="white"/>
<path d="M988.54 143.123C988.54 144.243 987.535 145.15 986.295 145.15C985.055 145.15 984.05 144.243 984.05 143.123C984.05 142.004 985.055 141.096 986.295 141.096C987.533 141.095 988.54 142.004 988.54 143.123Z" fill="white"/>
<path d="M507.593 66.4364C507.593 68.0598 506.136 69.3746 504.338 69.3746C502.541 69.3746 501.083 68.0598 501.083 66.4364C501.083 64.8145 502.54 63.4981 504.338 63.4981C506.136 63.4981 507.593 64.8145 507.593 66.4364Z" fill="white"/>
<path d="M389.462 111.045C389.462 112.667 388.005 113.984 386.207 113.984C384.411 113.984 382.952 112.669 382.952 111.045C382.952 109.424 384.409 108.107 386.207 108.107C388.005 108.109 389.462 109.424 389.462 111.045Z" fill="white"/>
<path d="M478.647 36.7094C478.647 38.3313 477.19 39.6477 475.392 39.6477C473.595 39.6477 472.137 38.3328 472.137 36.7094C472.137 35.086 473.593 33.7711 475.392 33.7711C477.19 33.7727 478.647 35.0875 478.647 36.7094Z" fill="white"/>
<path d="M278.422 73.1239C278.422 74.7457 276.965 76.0621 275.167 76.0621C273.37 76.0621 271.912 74.7473 271.912 73.1239C271.912 71.502 273.368 70.1856 275.167 70.1856C276.965 70.1871 278.422 71.502 278.422 73.1239Z" fill="white"/>
</g>
<defs>
<linearGradient id="paint0_linear_1_353" x1="720" y1="0" x2="720" y2="1024" gradientUnits="userSpaceOnUse">
<stop stop-color="#273459"/>
<stop offset="0.37743" stop-color="#35477E"/>
</linearGradient>
<clipPath id="clip0_1_353">
<rect width="1440" height="1024" fill="white"/>
</clipPath>
<clipPath id="clip1_1_353">
<rect width="1446" height="923" fill="white" transform="translate(-11 261)"/>
</clipPath>
</defs>
</svg>
